<!--Scalable Vector Graphic-->
<svg xmlns="http://www.w3.org/2000/svg" width="100" height="100" viewBox="0 0 100 100">
  <!-- Круглый фон с градиентом -->
  <defs>
    <linearGradient id="gradient" x1="0%" y1="0%" x2="100%" y2="100%">
      <stop offset="0%" style="stop-color:rgba(1, 86, 159, 1); stop-opacity:1" />
      <stop offset="100%" style="stop-color:rgba(75, 0, 130, 1); stop-opacity:1" />
    </linearGradient>
  </defs>
  <circle cx="50" cy="50" r="48" fill="url(#gradient)" stroke="white" stroke-width="4"/>

  <!-- Голова и плечи человека -->
  <circle cx="50" cy="45" r="10" fill="white"/>
  <path d="M40 60 Q50 70 60 60 Q55 55 45 55 Q40 55 40 60 Z" fill="white"/>

  <!-- Звезды вокруг головы -->
  <polygon points="50,20 53,28 61,28 55,33 57,41 50,37 43,41 45,33 39,28 47,28" fill="orange" stroke="white" stroke-width="1"/>
  <polygon points="35,30 37,35 43,35 39,39 41,44 35,41 30,44 32,39 27,35 33,35" fill="orange" stroke="white" stroke-width="1"/>
  <polygon points="65,30 67,35 73,35 69,39 71,44 65,41 60,44 62,39 57,35 63,35" fill="orange" stroke="white" stroke-width="1"/>
</svg>



